{"title":"Hate Story 2012 Uncut Hindi DvDrip Xvid ...Hon3y","uid":7587313,"size":820123687,"categoryP":"video","categoryS":"movies","magnet":"?xt=urn:btih:3c696e9da3a9622bdd07fe4b3538225224e10f41&amp;dn=Hate+Story+2012+Uncut+Hindi+DvDrip+Xvid+...Hon3y&amp;tr=udp%3A%2F%2Ftracker.openbittorrent.com%3A80&amp;tr=udp%3A%2F%2Fopen.demonii.com%3A1337&amp;tr=udp%3A%2F%2Ftracker.coppersurfer.tk%3A6969&amp;tr=udp%3A%2F%2Fexodus.desync.com%3A6969","seeders":16,"leechers":5,"uploader":"honey8ee","files":-1,"time":1346441027,"description":" &lt;a href=&quot;http://www.imdb.com/title/tt2309987/&quot; rel=&quot;nofollow&quot; target=&quot;_NEW&quot;&gt;http://www.imdb.com/title/tt2309987/&lt;/a&gt;\n\nFormat : AVI\nFormat/Info : Audio Video Interleave\nFile size : 779 MiB\nDuration : 2h 19mn\nOverall bit rate : 782 Kbps\n\nVideo\nID : 0\nFormat : MPEG-4 Visual\nFormat profile : Advanced Simple@L5\nFormat settings, BVOP : 2\nFormat settings, QPel : Yes\nFormat settings, GMC : 3 warppoints\nFormat settings, Matrix : Default (H.263)\nCodec ID : XVID\nCodec ID/Hint : XviD\nDuration : 2h 19mn\nBit rate : 680 Kbps\nWidth : 688 pixels\nHeight : 304 pixels\nDisplay aspect ratio : 2.25:1\nFrame rate : 23.976 fps\nStream size : 678 MiB (87%)\n\nAudio\n\nCodec ID/Hint : MP3\nDuration : 2h 19mn\nBit rate mode : Constant\nBit rate : 96.0 Kbps\nChannel(s) : 2 channels\nStream size : 95.7 MiB (12%)\n\n &lt;a href=&quot;\nhttp://www.shotpix.com/images/93314453982801498198.png&quot; rel=&quot;nofollow&quot; target=&quot;_NEW&quot;&gt;\nhttp://www.shotpix.com/images/93314453982801498198.png&lt;/a&gt;\n &lt;a href=&quot;\nhttp://www.shotpix.com/images/23070710750094620480.png&quot; rel=&quot;nofollow&quot; target=&quot;_NEW&quot;&gt;\nhttp://www.shotpix.com/images/23070710750094620480.png&lt;/a&gt;\n &lt;a href=&quot;\nhttp://www.shotpix.com/images/84806351915323190877.png&quot; rel=&quot;nofollow&quot; target=&quot;_NEW&quot;&gt;\nhttp://www.shotpix.com/images/84806351915323190877.png&lt;/a&gt;\n &lt;a href=&quot;\nhttp://www.shotpix.com/images/29868359543159601697.png&quot; rel=&quot;nofollow&quot; target=&quot;_NEW&quot;&gt;\nhttp://www.shotpix.com/images/29868359543159601697.png&lt;/a&gt;\n &lt;a href=&quot;\nhttp://www.shotpix.com/images/08595842409669571707.png&quot; rel=&quot;nofollow&quot; target=&quot;_NEW&quot;&gt;\nhttp://www.shotpix.com/images/08595842409669571707.png&lt;/a&gt;\n &lt;a href=&quot;\nhttp://www.shotpix.com/images/72820784361983299892.png&quot; rel=&quot;nofollow&quot; target=&quot;_NEW&quot;&gt;\nhttp://www.shotpix.com/images/72820784361983299892.png&lt;/a&gt;\n &lt;a href=&quot;\nhttp://www.shotpix.com/images/26792041357296082698.png&quot; rel=&quot;nofollow&quot; target=&quot;_NEW&quot;&gt;\nhttp://www.shotpix.com/images/26792041357296082698.png&lt;/a&gt;\n","torrent":{"xt":"urn:btih:3c696e9da3a9622bdd07fe4b3538225224e10f41","amp;dn":"Hate+Story+2012+Uncut+Hindi+DvDrip+Xvid+...Hon3y","amp;tr":["udp%3A%2F%2Ftracker.openbittorrent.com%3A80","udp%3A%2F%2Fopen.demonii.com%3A1337","udp%3A%2F%2Ftracker.coppersurfer.tk%3A6969","udp%3A%2F%2Fexodus.desync.com%3A6969"],"infoHash":"3c696e9da3a9622bdd07fe4b3538225224e10f41","infoHashBuffer":{"type":"Buffer","data":[60,105,110,157,163,169,98,43,221,7,254,75,53,56,34,82,36,225,15,65]},"announce":[],"urlList":[]}}